HIERARCHY
ROOT Root
{
  OFFSET 0.0 0.0 0.0
  CHANNELS 6 Xposition Yposition Zposition Zrotation Yrotation Xrotation
  JOINT Hips
  {
    OFFSET 0.0 100.0 0.0
    CHANNELS 6 Xposition Yposition Zposition Zrotation Yrotation Xrotation
    JOINT Spine1
    {
      OFFSET 5.003913 -0.037094 -0.013727
      CHANNELS 3 Zrotation Yrotation Xrotation
      JOINT Spine2
      {
        OFFSET 7.125363 -1e-06 0.0
        CHANNELS 3 Zrotation Yrotation Xrotation
        JOINT Chest
        {
          OFFSET 7.594027 1e-06 0.0
          CHANNELS 3 Zrotation Yrotation Xrotation
          JOINT Neck1
          {
            OFFSET 26.313086 -0.460272 -0.181672
            CHANNELS 3 Zrotation Yrotation Xrotation
            JOINT Neck2
            {
              OFFSET 8.045911 0.0 0.0
              CHANNELS 3 Zrotation Yrotation Xrotation
              JOINT Head
              {
                OFFSET 6.432774 0.0 0.0
                CHANNELS 3 Zrotation Yrotation Xrotation
                JOINT HeadEnd
                {
                  OFFSET 16.169773 0.06451 0.00362
                  CHANNELS 3 Zrotation Yrotation Xrotation
                }
                JOINT Jaw
                {
                  OFFSET 0.108741 3.12938 0.002639
                  CHANNELS 3 Zrotation Yrotation Xrotation
                }
                JOINT LeftEye
                {
                  OFFSET 4.45173 8.166359 3.206392
                  CHANNELS 3 Zrotation Yrotation Xrotation
                }
                JOINT RightEye
                {
                  OFFSET 4.436895 8.135758 -3.222429
                  CHANNELS 3 Zrotation Yrotation Xrotation
                }
              }
            }
          }
          JOINT LeftShoulder
          {
            OFFSET 23.218927 5.195579 1.621656
            CHANNELS 3 Zrotation Yrotation Xrotation
            JOINT LeftArm
            {
              OFFSET 15.902118 2e-06 -2e-06
              CHANNELS 3 Zrotation Yrotation Xrotation
              JOINT LeftForeArm
              {
                OFFSET 28.739307 0.0 -1e-06
                CHANNELS 3 Zrotation Yrotation Xrotation
                JOINT LeftHand
                {
                  OFFSET 27.093981 -4e-06 0.0
                  CHANNELS 3 Zrotation Yrotation Xrotation
                  JOINT LeftHandThumb1
                  {
                    OFFSET 2.276781 3.380274 0.83384
                    CHANNELS 3 Zrotation Yrotation Xrotation
                    JOINT LeftHandThumb2
                    {
                      OFFSET 4.705309 -1e-06 -1e-06
                      CHANNELS 3 Zrotation Yrotation Xrotation
                      JOINT LeftHandThumb3
                      {
                        OFFSET 2.798515 0.0 3e-06
                        CHANNELS 3 Zrotation Yrotation Xrotation
                        JOINT LeftHandThumbEnd
                        {
                          OFFSET 3.180793 4e-06 -4e-06
                          CHANNELS 3 Zrotation Yrotation Xrotation
                        }
                      }
                    }
                  }
                  JOINT LeftHandIndex1
                  {
                    OFFSET 3.247786 2.352677 0.137192
                    CHANNELS 3 Zrotation Yrotation Xrotation
                    JOINT LeftHandIndex2
                    {
                      OFFSET 6.367095 1e-06 0.0
                      CHANNELS 3 Zrotation Yrotation Xrotation
                      JOINT LeftHandIndex3
                      {
                        OFFSET 3.662364 0.0 0.0
                        CHANNELS 3 Zrotation Yrotation Xrotation
                        JOINT LeftHandIndex4
                        {
                          OFFSET 2.329242 4e-06 -4e-06
                          CHANNELS 3 Zrotation Yrotation Xrotation
                          JOINT LeftHandIndexEnd
                          {
                            OFFSET 2.767823 1e-06 0.0
                            CHANNELS 3 Zrotation Yrotation Xrotation
                          }
                        }
                      }
                    }
                  }
                  JOINT LeftHandMiddle1
                  {
                    OFFSET 3.163612 0.945023 -0.406112
                    CHANNELS 3 Zrotation Yrotation Xrotation
                    JOINT LeftHandMiddle2
                    {
                      OFFSET 6.276789 3e-06 0.0
                      CHANNELS 3 Zrotation Yrotation Xrotation
                      JOINT LeftHandMiddle3
                      {
                        OFFSET 4.35652 -1e-06 4e-06
                        CHANNELS 3 Zrotation Yrotation Xrotation
                        JOINT LeftHandMiddle4
                        {
                          OFFSET 2.996877 0.0 8e-06
                          CHANNELS 3 Zrotation Yrotation Xrotation
                          JOINT LeftHandMiddleEnd
                          {
                            OFFSET 2.323256 3e-06 -4e-06
                            CHANNELS 3 Zrotation Yrotation Xrotation
                          }
                        }
                      }
                    }
                  }
                  JOINT LeftHandRing1
                  {
                    OFFSET 2.882606 -0.309162 0.107445
                    CHANNELS 3 Zrotation Yrotation Xrotation
                    JOINT LeftHandRing2
                    {
                      OFFSET 6.033198 0.0 4e-06
                      CHANNELS 3 Zrotation Yrotation Xrotation
                      JOINT LeftHandRing3
                      {
                        OFFSET 4.350578 3e-06 0.0
                        CHANNELS 3 Zrotation Yrotation Xrotation
                        JOINT LeftHandRing4
                        {
                          OFFSET 2.651321 2e-06 -7e-06
                          CHANNELS 3 Zrotation Yrotation Xrotation
                          JOINT LeftHandRingEnd
                          {
                            OFFSET 1.937663 1e-06 -4e-06
                            CHANNELS 3 Zrotation Yrotation Xrotation
                          }
                        }
                      }
                    }
                  }
                  JOINT LeftHandPinky1
                  {
                    OFFSET 2.865315 -1.525436 0.575687
                    CHANNELS 3 Zrotation Yrotation Xrotation
                    JOINT LeftHandPinky2
                    {
                      OFFSET 5.54936 1e-06 -8e-06
                      CHANNELS 3 Zrotation Yrotation Xrotation
                      JOINT LeftHandPinky3
                      {
                        OFFSET 3.070974 0.0 -4e-06
                        CHANNELS 3 Zrotation Yrotation Xrotation
                        JOINT LeftHandPinky4
                        {
                          OFFSET 1.549672 1e-06 0.0
                          CHANNELS 3 Zrotation Yrotation Xrotation
                          JOINT LeftHandPinkyEnd
                          {
                            OFFSET 1.952123 0.0 0.0
                            CHANNELS 3 Zrotation Yrotation Xrotation
                          }
                        }
                      }
                    }
                  }
                }
              }
            }
          }
          JOINT RightShoulder
          {
            OFFSET 23.161716 5.296122 -1.380114
            CHANNELS 3 Zrotation Yrotation Xrotation
            JOINT RightArm
            {
              OFFSET -16.027195 -2e-06 1.1e-05
              CHANNELS 3 Zrotation Yrotation Xrotation
              JOINT RightForeArm
              {
                OFFSET -28.736639 4e-06 2e-06
                CHANNELS 3 Zrotation Yrotation Xrotation
                JOINT RightHand
                {
                  OFFSET -27.133619 6e-06 0.0
                  CHANNELS 3 Zrotation Yrotation Xrotation
                  JOINT RightHandThumb1
                  {
                    OFFSET -2.274328 -3.351035 -0.83067
                    CHANNELS 3 Zrotation Yrotation Xrotation
                    JOINT RightHandThumb2
                    {
                      OFFSET -4.703594 -3e-06 2e-06
                      CHANNELS 3 Zrotation Yrotation Xrotation
                      JOINT RightHandThumb3
                      {
                        OFFSET -2.794935 -4e-06 -3e-06
                        CHANNELS 3 Zrotation Yrotation Xrotation
                        JOINT RightHandThumbEnd
                        {
                          OFFSET -3.183852 4e-06 1e-06
                          CHANNELS 3 Zrotation Yrotation Xrotation
                        }
                      }
                    }
                  }
                  JOINT RightHandIndex1
                  {
                    OFFSET -3.253496 -2.33755 -0.127667
                    CHANNELS 3 Zrotation Yrotation Xrotation
                    JOINT RightHandIndex2
                    {
                      OFFSET -6.344434 0.0 0.0
                      CHANNELS 3 Zrotation Yrotation Xrotation
                      JOINT RightHandIndex3
                      {
                        OFFSET -3.654871 0.0 -8e-06
                        CHANNELS 3 Zrotation Yrotation Xrotation
                        JOINT RightHandIndex4
                        {
                          OFFSET -2.327586 -1e-06 0.0
                          CHANNELS 3 Zrotation Yrotation Xrotation
                          JOINT RightHandIndexEnd
                          {
                            OFFSET -2.770001 3e-06 8e-06
                            CHANNELS 3 Zrotation Yrotation Xrotation
                          }
                        }
                      }
                    }
                  }
                  JOINT RightHandMiddle1
                  {
                    OFFSET -3.168223 -0.944764 0.411762
                    CHANNELS 3 Zrotation Yrotation Xrotation
                    JOINT RightHandMiddle2
                    {
                      OFFSET -6.266691 -1e-06 -4e-06
                      CHANNELS 3 Zrotation Yrotation Xrotation
                      JOINT RightHandMiddle3
                      {
                        OFFSET -4.348901 0.0 0.0
                        CHANNELS 3 Zrotation Yrotation Xrotation
                        JOINT RightHandMiddle4
                        {
                          OFFSET -3.00024 2e-06 -4e-06
                          CHANNELS 3 Zrotation Yrotation Xrotation
                          JOINT RightHandMiddleEnd
                          {
                            OFFSET -2.321477 -4e-06 -4e-06
                            CHANNELS 3 Zrotation Yrotation Xrotation
                          }
                        }
                      }
                    }
                  }
                  JOINT RightHandRing1
                  {
                    OFFSET -2.885654 0.293261 -0.119232
                    CHANNELS 3 Zrotation Yrotation Xrotation
                    JOINT RightHandRing2
                    {
                      OFFSET -6.032835 -1e-06 -4e-06
                      CHANNELS 3 Zrotation Yrotation Xrotation
                      JOINT RightHandRing3
                      {
                        OFFSET -4.33881 0.0 -4e-06
                        CHANNELS 3 Zrotation Yrotation Xrotation
                        JOINT RightHandRing4
                        {
                          OFFSET -2.654903 -4e-06 -4e-06
                          CHANNELS 3 Zrotation Yrotation Xrotation
                          JOINT RightHandRingEnd
                          {
                            OFFSET -1.935122 0.0 4e-06
                            CHANNELS 3 Zrotation Yrotation Xrotation
                          }
                        }
                      }
                    }
                  }
                  JOINT RightHandPinky1
                  {
                    OFFSET -2.866241 1.503904 -0.60527
                    CHANNELS 3 Zrotation Yrotation Xrotation
                    JOINT RightHandPinky2
                    {
                      OFFSET -5.553177 -2e-06 0.0
                      CHANNELS 3 Zrotation Yrotation Xrotation
                      JOINT RightHandPinky3
                      {
                        OFFSET -3.062664 -1e-06 -4e-06
                        CHANNELS 3 Zrotation Yrotation Xrotation
                        JOINT RightHandPinky4
                        {
                          OFFSET -1.546529 2e-06 4e-06
                          CHANNELS 3 Zrotation Yrotation Xrotation
                          JOINT RightHandPinkyEnd
                          {
                            OFFSET -1.952341 0.0 -4e-06
                            CHANNELS 3 Zrotation Yrotation Xrotation
                          }
                        }
                      }
                    }
                  }
                }
              }
            }
          }
        }
      }
    }
    JOINT LeftLeg
    {
      OFFSET -8.443107 2.567604 10.043214
      CHANNELS 3 Zrotation Yrotation Xrotation
      JOINT LeftShin
      {
        OFFSET 43.229198 1e-06 -1e-06
        CHANNELS 3 Zrotation Yrotation Xrotation
        JOINT LeftFoot
        {
          OFFSET 42.298611 1e-06 1e-06
          CHANNELS 3 Zrotation Yrotation Xrotation
          JOINT LeftToeBase
          {
            OFFSET 14.165858 1e-06 0.0
            CHANNELS 3 Zrotation Yrotation Xrotation
            JOINT LeftToeEnd
            {
              OFFSET 6.7141 -0.234461 0.0
              CHANNELS 3 Zrotation Yrotation Xrotation
            }
          }
        }
      }
    }
    JOINT RightLeg
    {
      OFFSET -8.303923 2.592729 -10.047278
      CHANNELS 3 Zrotation Yrotation Xrotation
      JOINT RightShin
      {
        OFFSET -43.369682 0.0 1e-06
        CHANNELS 3 Zrotation Yrotation Xrotation
        JOINT RightFoot
        {
          OFFSET -42.260784 4e-06 2e-06
          CHANNELS 3 Zrotation Yrotation Xrotation
          JOINT RightToeBase
          {
            OFFSET -14.222245 -2e-06 -1e-06
            CHANNELS 3 Zrotation Yrotation Xrotation
            JOINT RightToeEnd
            {
              OFFSET -6.660062 0.232574 -2e-06
              CHANNELS 3 Zrotation Yrotation Xrotation
            }
          }
        }
      }
    }
  }
}
MOTION
Frames: 4
Frame Time: 0.03333333333333333
0.0 0.0 0.0 0.0 -0.0 0.0 9.258082 85.386612 168.696625 89.459663 -3.299996 90.945442 8.614676 -0.354098 -0.969873 -7.439525 -0.626671 -2.638968 23.221189 1.894906 -3.61736 23.425945 3.753143 2.894957 -2.795737 -1.159081 2.312217 -40.188549 -2.442842 4.956275 6e-06 0.0 -0.0 -0.004234 -0.000177 -0.034582 0.089272 0.010522 0.002639 0.067788 -0.009899 -0.066274 -8.978199 -82.594879 23.49765 33.398472 -53.877197 -51.890495 111.142776 -1.012809 0.747572 12.690983 19.363579 40.986393 17.636625 -26.322729 52.41119 -19.466656 -14.395597 29.410389 0.0 -8.774822 -2e-06 16.154715 -18.887987 6.419439 -0.609776 -1.795654 -3.889326 -4.80709 -11.046811 -2.93785 3e-06 -20.976019 2e-06 -5.019972 -25.033556 -4.03188 6e-06 1e-06 -2e-06 -10.634534 -5.68697 -3.565585 10.573272 -17.922947 -3.1139 1e-06 -13.821208 1e-06 -0.501779 -31.181498 -4.027016 -12.138616 -59.77998 7.867027 -13.982714 -7.150198 -2.87504 13.772728 -8.401491 -3.218239 0.347732 -34.211544 0.771655 -0.96303 -17.73337 2.62102 -1e-06 -0.0 0.0 -17.346422 -20.095219 -4.201779 21.757559 -1.638373 3.866427 1e-06 -6.338824 1e-06 -1.697593 -22.591747 -6.194005 1e-06 -5e-06 -5e-06 74.183342 -82.43219 123.003265 33.051407 -49.31274 -47.347595 117.705032 -0.649717 0.399588 32.841145 27.700821 59.86797 22.182112 -20.375887 49.933304 -16.701817 -16.74353 28.476526 -4e-06 -12.690601 -0.0 16.210527 -17.861609 2.126553 -0.105918 -1.513857 -4.27588 -5.039042 -5.61287 -2.953556 5e-06 -11.020527 -3e-06 -6.111297 -15.895334 -3.840469 0.0 -1e-06 -0.0 -10.283367 -5.680288 -4.341837 11.028296 -11.302406 -2.372633 -1.384268 -14.238581 -6.32012 -0.625436 -26.924194 -3.8276 -4.143516 -49.416691 -4.122526 -13.708524 -7.363474 -3.720938 18.141153 -14.05274 -3.242676 8e-06 -18.78727 -3e-06 -0.429711 -8.456043 2.555503 -0.0 0.0 -0.0 -15.923532 -20.094479 -5.473584 30.41921 -7.190829 1.735924 4e-06 -8.162925 -2e-06 -1.861899 -22.861469 -6.167942 -0.0 -3e-06 -0.0 160.527664 5.398155 -3.550827 71.271614 0.121884 -0.302478 -103.281921 -5.813196 4.413745 -14.993162 1.768084 2.100047 -0.999999 0.0 0.0 -59.929001 -1.557955 -12.579167 39.813721 0.81189 -0.768737 -31.055006 -6.196375 -5.087845 -10.39221 0.715734 1.56267 -1.000002 0.0 -0.0 
0.0 0.0 0.0 0.0 -0.0 0.0 8.936066 85.327339 170.875687 89.279549 -3.731285 91.784081 8.4442 -0.273277 -1.028936 -7.515658 -0.657172 -2.747187 23.04952 2.024736 -3.732071 23.209911 4.044437 2.839155 -2.803134 -1.167796 2.299641 -40.187672 -2.440014 4.808415 7e-06 -0.0 -0.0 -0.009327 0.003374 -0.050255 0.1011 0.006657 -0.007302 0.084781 0.001463 -0.086899 -7.718193 -82.458183 22.210052 33.194332 -54.086056 -51.792194 111.175507 -1.208235 0.8081 12.532828 18.992373 41.171112 17.636627 -26.322733 52.411205 -19.466658 -14.395596 29.410393 -0.0 -8.774821 -2e-06 16.172485 -18.85216 6.374321 -0.609777 -1.795653 -3.889329 -4.807088 -11.046807 -2.937851 5e-06 -20.976015 1e-06 -5.019968 -25.033556 -4.031883 6e-06 -0.0 1e-06 -10.634533 -5.68697 -3.565591 10.573272 -17.922949 -3.1139 3e-06 -13.821206 2e-06 -0.501776 -31.181505 -4.027016 -12.045906 -59.751984 7.813438 -13.982714 -7.150199 -2.875044 13.772728 -8.401491 -3.218239 0.347736 -34.211555 0.771654 -0.96303 -17.733374 2.621021 0.0 1e-06 0.0 -17.346416 -20.095217 -4.201785 21.757557 -1.638376 3.866431 2e-06 -6.338823 1e-06 -1.697586 -22.591742 -6.194009 1e-06 -3e-06 -3e-06 72.526573 -81.876503 124.87912 31.979362 -49.472797 -46.446674 118.4422 -0.734224 0.365124 33.044529 27.397694 60.172493 22.182117 -20.375895 49.933319 -16.701807 -16.74353 28.476526 -4e-06 -12.690603 -0.0 16.340954 -17.898565 2.140381 -0.105919 -1.513856 -4.275882 -5.039042 -5.61287 -2.953556 4e-06 -11.020527 -2e-06 -6.111299 -15.89533 -3.840471 1e-06 -0.0 0.0 -10.28337 -5.680286 -4.341839 11.028296 -11.302407 -2.372633 -1.38427 -14.238577 -6.32012 -0.625438 -26.924187 -3.827599 -4.155 -49.661495 -4.04689 -13.708526 -7.363472 -3.720939 18.14115 -14.052739 -3.242674 6e-06 -18.78727 -1e-06 -0.429712 -8.456043 2.555504 0.0 -0.0 -0.0 -15.923536 -20.094482 -5.473584 30.419218 -7.190827 1.735926 3e-06 -8.162927 -1e-06 -1.861903 -22.861471 -6.167942 -0.0 -2e-06 -1e-06 161.915558 4.839297 -3.178043 71.30204 0.086793 -0.267837 -101.686623 -5.117748 4.144483 -17.061163 1.816438 2.057206 -0.999999 -0.0 0.0 -59.757286 -1.226269 -12.369235 41.873867 0.715882 -0.785866 -35.400787 -8.351195 -3.643811 -10.898492 0.712199 1.56907 -1.000003 -0.0 1e-06 
0.0 0.0 0.0 0.0 -0.0 0.0 8.607416 85.238152 173.129471 89.049858 -4.216916 92.551201 8.240645 -0.19948 -1.10888 -7.608271 -0.690702 -2.83213 22.874704 2.1689 -3.82944 22.954582 4.290014 2.792776 -2.805025 -1.160271 2.310156 -40.22971 -2.461675 4.731661 6e-06 -0.0 0.0 -0.012786 0.006666 -0.061494 0.094836 0.005504 -0.016634 0.084001 0.009337 -0.099119 -6.560179 -82.281769 20.993431 32.976158 -54.276207 -51.6679 111.259888 -1.390696 0.884946 12.431097 18.715822 41.191933 17.636631 -26.322731 52.411186 -19.46666 -14.395596 29.410385 0.0 -8.774822 -3e-06 16.198053 -18.805506 6.332862 -0.609777 -1.795654 -3.889328 -4.80709 -11.046813 -2.937849 2e-06 -20.976021 3e-06 -5.019973 -25.033562 -4.031882 5e-06 1e-06 1e-06 -10.634536 -5.686972 -3.565587 10.573271 -17.922951 -3.113898 1e-06 -13.821209 2e-06 -0.50178 -31.181505 -4.027016 -12.003856 -59.752701 7.828096 -13.982715 -7.150201 -2.87504 13.772727 -8.401492 -3.21824 0.347731 -34.211555 0.771654 -0.96303 -17.73337 2.621019 -1e-06 1e-06 -0.0 -17.346424 -20.095224 -4.201778 21.757559 -1.638372 3.866428 0.0 -6.338825 1e-06 -1.697593 -22.591751 -6.194008 1e-06 -4e-06 -2e-06 71.00103 -81.252388 126.662689 30.8948 -49.756401 -45.385784 119.254478 -0.777354 0.299143 33.415592 27.061613 60.631794 22.182121 -20.375891 49.933308 -16.701811 -16.74353 28.476522 -1e-06 -12.690601 -2e-06 16.494188 -17.9321 2.152407 -0.10592 -1.513855 -4.275881 -5.039042 -5.612872 -2.953556 3e-06 -11.020527 -1e-06 -6.1113 -15.895336 -3.84047 0.0 -0.0 -0.0 -10.283373 -5.680288 -4.341838 11.028296 -11.302409 -2.372633 -1.384269 -14.238583 -6.32012 -0.625441 -26.924194 -3.8276 -4.200651 -49.871212 -3.952341 -13.708526 -7.363479 -3.720938 18.141151 -14.052743 -3.242673 5e-06 -18.787275 -2e-06 -0.429712 -8.456046 2.555504 -0.0 0.0 -0.0 -15.923536 -20.094484 -5.473583 30.419218 -7.190826 1.73593 3e-06 -8.162929 -1e-06 -1.861903 -22.861475 -6.167943 -0.0 -3e-06 -1e-06 163.347275 4.182448 -2.811003 71.227173 0.053633 -0.237977 -99.830055 -4.454624 3.92363 -19.134262 1.853449 2.004261 -0.999999 -0.0 -0.0 -59.539402 -1.003244 -12.386909 44.102562 0.614476 -0.793204 -41.333065 -10.077345 -2.179947 -10.629533 0.702525 1.576832 -1.000002 -0.0 -0.0 
0.0 0.0 0.0 0.0 -0.0 0.0 8.264245 85.074577 175.476242 88.736855 -4.738343 93.159966 8.011639 -0.09994 -1.185606 -7.676561 -0.70404 -2.865913 22.654747 2.292153 -3.839381 22.609236 4.5078 2.644839 -2.814954 -1.181432 2.358783 -40.178211 -2.458866 4.569836 6e-06 -0.0 0.0 -0.010715 0.007109 -0.010244 0.087034 0.003115 0.030282 0.08032 0.012721 -0.042303 -5.394613 -82.177673 19.784138 32.831604 -54.411484 -51.550385 111.356483 -1.568036 0.748845 12.507317 18.621412 41.343632 17.636618 -26.322721 52.411179 -19.466656 -14.395597 29.410385 -2e-06 -8.774819 -1e-06 16.097158 -18.887682 6.382422 -0.609775 -1.795652 -3.889324 -4.807085 -11.046804 -2.937851 7e-06 -20.976006 1e-06 -5.019965 -25.033543 -4.031879 6e-06 2e-06 2e-06 -10.634529 -5.686968 -3.565587 10.573272 -17.922945 -3.113901 3e-06 -13.821201 2e-06 -0.501773 -31.181488 -4.027013 -12.080061 -59.792229 7.754971 -13.982707 -7.150194 -2.875042 13.772726 -8.40149 -3.21824 0.34774 -34.211536 0.771652 -0.963028 -17.733362 2.62102 0.0 1e-06 0.0 -17.346409 -20.095203 -4.201782 21.757553 -1.638377 3.866426 1e-06 -6.338821 0.0 -1.697585 -22.591734 -6.194002 -0.0 -4e-06 -4e-06 69.518059 -80.481155 128.323303 29.772331 -50.214268 -44.049572 119.951035 -0.764757 0.239266 34.188313 26.573027 61.177074 22.182112 -20.375887 49.933308 -16.701811 -16.74353 28.476526 -4e-06 -12.690601 0.0 16.644831 -18.075268 2.190849 -0.105919 -1.513856 -4.275881 -5.03904 -5.612868 -2.953556 4e-06 -11.020524 -2e-06 -6.111296 -15.89533 -3.840471 -0.0 -0.0 -1e-06 -10.283368 -5.680287 -4.341838 11.028295 -11.302404 -2.372634 -1.384268 -14.238577 -6.32012 -0.625437 -26.924183 -3.827601 -4.268324 -50.137894 -3.852484 -13.708523 -7.363476 -3.720937 18.14115 -14.052739 -3.242676 7e-06 -18.787266 -3e-06 -0.429711 -8.456041 2.555503 -0.0 -0.0 0.0 -15.923534 -20.094479 -5.473584 30.41921 -7.190824 1.735924 3e-06 -8.162927 -1e-06 -1.861902 -22.861467 -6.167942 0.0 -3e-06 -1e-06 164.823059 3.394932 -2.485663 71.174896 0.026717 -0.233271 -97.538086 -3.904245 3.638192 -21.078669 1.940436 1.979427 -1.000001 0.0 -0.0 -59.100098 -0.789663 -12.620462 46.157013 0.53802 -0.875759 -48.579693 -11.166492 -0.540133 -9.705931 0.708895 1.602728 -1.000002 -0.0 -0.0 
